<svg width="1440"
     height="70"
     viewBox="0 0 1440 70"
     fill="none"
     xmlns="http://www.w3.org/2000/svg">
  <g filter="url(#filter0_d)">
    <path d="M0 0H1440V49.8113C1440 49.8113 1406.25 49.6226 1389.38 45.8491C1382.76 43.4201 1337.34 40 1311.33 48.8679C1302.19 51.9837 1285.68 60.1995 1264.22 59.8113C1208.67 59.8113 1213.09 42.8795 1164.38 42.2641C1113.72 41.6243 1123.34 53.5316 1064.53 52.9608C1019.53 52.9608 997.734 42.0021 940.078 41.8868C911.549 41.8297 915.541 55.5997 883.125 55.6604C856.406 55.6604 866.25 42.7369 830.391 42.8302C791.339 42.9318 759.375 50.566 713.672 49.8113C672.891 49.8113 669.375 41.8868 631.406 42.8302C600.254 44.7347 577.266 60 536.484 60C502.031 60 478.473 41.675 452.109 41.5094C407.034 41.2264 391.641 53.9623 336.797 53.0189C293.203 52.269 247.002 42.7432 228.516 42.6415C184.624 42.4001 200.391 55.6604 160.312 55.6604C139.219 55.6604 144.141 42.4146 113.203 42.2641C77.3437 42.0898 54.8438 45.283 30.9375 49.0566C15.0146 50.9434 0 49.8113 0 49.8113V0Z"
          fill="url(#paint0_radial)" />
    <g filter="url(#filter1_dd)">
      <path fill-rule="evenodd"
            clip-rule="evenodd"
            d="M0.404907 42.0218V47.8439C0.404907 47.8439 20.0732 48.8617 31.3122 47.0916C55.1951 43.3302 77.6732 40.1472 113.498 40.321C130.397 40.403 136.586 44.3877 142.17 47.9826C146.798 50.9623 151.01 53.6742 160.561 53.6742C180.071 53.6742 186.334 50.5358 192.702 47.3453C199.401 43.9883 206.215 40.5738 228.698 40.6971C236.196 40.7383 248.259 42.328 262.859 44.2521C284.217 47.0669 311.005 50.5972 336.873 51.0412C365.987 51.5408 383.972 48.1907 401.192 44.9832C416.379 42.1543 430.97 39.4365 452.073 39.5687C464.302 39.6453 475.927 43.6241 488.317 47.865C502.612 52.758 517.927 57.9999 536.366 57.9999C559.348 57.9999 576.674 53.158 592.998 48.5961C605.612 45.0708 617.629 41.7127 631.195 40.8852C650.456 40.4077 660.842 42.2093 671.734 44.0985C682.292 45.93 693.326 47.8439 713.38 47.8439C738.134 48.2518 758.853 46.2019 778.853 44.2231C795.744 42.552 812.122 40.9316 829.985 40.8852C849.232 40.8352 855.3 44.5302 860.933 47.9607C865.786 50.9156 870.316 53.6742 882.668 53.6742C899.347 53.643 906.378 49.987 913.169 46.4561C919.563 43.1312 925.744 39.9172 939.566 39.9448C970.053 40.0057 990.503 43.0944 1009.67 45.9888C1026.71 48.563 1042.74 50.9833 1063.9 50.9833C1094.29 51.2776 1106.39 48.2438 1117.99 45.3346C1128.82 42.6196 1139.22 40.0131 1163.64 40.321C1186.96 40.6149 1198.09 44.643 1209.47 48.7593C1221.84 53.2335 1234.49 57.8118 1263.39 57.8118C1281.03 58.1301 1295.32 52.6441 1304.91 48.9592C1306.98 48.1649 1308.83 47.4543 1310.45 46.9035C1336.44 38.0641 1381.82 41.4733 1388.42 43.8944C1405.28 47.6558 1439 47.8439 1439 47.8439V42.0218C1439 42.0218 1405.28 41.8337 1388.42 38.0723C1381.82 35.6512 1336.44 32.242 1310.45 41.0814C1308.83 41.6322 1306.98 42.3428 1304.91 43.1371C1295.32 46.822 1281.03 52.308 1263.39 51.9897C1234.49 51.9897 1221.84 47.4114 1209.47 42.9372C1198.09 38.8209 1186.96 34.7928 1163.64 34.4989C1139.22 34.191 1128.82 36.7975 1117.99 39.5125C1106.39 42.4217 1094.29 45.4555 1063.9 45.1612C1042.74 45.1612 1026.71 42.7408 1009.67 40.1667C990.503 37.2723 970.053 34.1836 939.566 34.1227C925.744 34.0951 919.563 37.3091 913.169 40.634C906.378 44.1649 899.347 47.8209 882.668 47.8521C870.316 47.8521 865.786 45.0935 860.933 42.1386C855.3 38.7081 849.232 35.0131 829.985 35.0631C812.122 35.1095 795.744 36.7299 778.853 38.401C758.853 40.3798 738.134 42.4297 713.38 42.0218C693.326 42.0218 682.292 40.1079 671.734 38.2764C660.842 36.3872 650.456 34.5856 631.195 35.0631C617.629 35.8906 605.612 39.2487 592.998 42.774C576.674 47.3359 559.348 52.1778 536.366 52.1778C517.927 52.1778 502.612 46.9359 488.317 42.0429C475.927 37.802 464.302 33.8232 452.073 33.7466C430.97 33.6144 416.379 36.3322 401.192 39.1611C383.972 42.3685 365.987 45.7187 336.873 45.2191C311.005 44.7751 284.217 41.2448 262.859 38.43C248.259 36.5059 236.196 34.9162 228.698 34.875C206.215 34.7517 199.401 38.1662 192.702 41.5232C186.334 44.7137 180.071 47.8521 160.561 47.8521C151.01 47.8521 146.798 45.1402 142.17 42.1605C136.586 38.5655 130.397 34.5809 113.498 34.4989C77.6732 34.3251 55.1951 37.508 31.3122 41.2695C20.0732 43.0396 0.404907 42.0218 0.404907 42.0218Z"
            fill="#6F0371"
            fill-opacity="0.05" />
    </g>
  </g>
  <defs>
    <filter id="filter0_d"
            x="-8"
            y="-6"
            width="1456"
            height="76"
            filterUnits="userSpaceOnUse"
            color-interpolation-filters="sRGB">
      <feFlood flood-opacity="0"
               result="BackgroundImageFix" />
      <feColorMatrix in="SourceAlpha"
                     type="matrix"
                     values="0 0 0 0 0 0 0 0 0 0 0 0 0 0 0 0 0 0 127 0" />
      <feOffset dy="2" />
      <feGaussianBlur stdDeviation="4" />
      <feColorMatrix type="matrix"
                     values="0 0 0 0 0.431373 0 0 0 0 0.0117647 0 0 0 0 0.439216 0 0 0 0.25 0" />
      <feBlend mode="normal"
               in2="BackgroundImageFix"
               result="effect1_dropShadow" />
      <feBlend mode="normal"
               in="SourceGraphic"
               in2="effect1_dropShadow"
               result="shape" />
    </filter>
    <filter id="filter1_dd"
            x="-7.59509"
            y="23.7419"
            width="1454.6"
            height="42.2579"
            filterUnits="userSpaceOnUse"
            color-interpolation-filters="sRGB">
      <feFlood flood-opacity="0"
               result="BackgroundImageFix" />
      <feColorMatrix in="SourceAlpha"
                     type="matrix"
                     values="0 0 0 0 0 0 0 0 0 0 0 0 0 0 0 0 0 0 127 0" />
      <feOffset dy="-2" />
      <feGaussianBlur stdDeviation="4" />
      <feColorMatrix type="matrix"
                     values="0 0 0 0 0.576405 0 0 0 0 0.514224 0 0 0 0 0.62526 0 0 0 0.5 0" />
      <feBlend mode="normal"
               in2="BackgroundImageFix"
               result="effect1_dropShadow" />
      <feColorMatrix in="SourceAlpha"
                     type="matrix"
                     values="0 0 0 0 0 0 0 0 0 0 0 0 0 0 0 0 0 0 127 0" />
      <feOffset dy="4" />
      <feGaussianBlur stdDeviation="2" />
      <feColorMatrix type="matrix"
                     values="0 0 0 0 0.254535 0 0 0 0 0.0251963 0 0 0 0 0.258594 0 0 0 0.5 0" />
      <feBlend mode="normal"
               in2="effect1_dropShadow"
               result="effect2_dropShadow" />
      <feBlend mode="normal"
               in="SourceGraphic"
               in2="effect2_dropShadow"
               result="shape" />
    </filter>
    <radialGradient id="paint0_radial"
                    cx="0"
                    cy="0"
                    r="1"
                    gradientUnits="userSpaceOnUse"
                    gradientTransform="translate(720) rotate(90.0001) scale(60 1437.61)">
      <stop stop-color="#851586" />
      <stop offset="1"
            stop-color="#2D0649" />
    </radialGradient>
  </defs>
</svg>